<svg width="24" height="24" viewBox="0 0 24 24" fill="none" xmlns="http://www.w3.org/2000/svg">
<path d="M18.825 0.75H5.175C3.56235 0.75 2.25 2.06672 2.25 3.68475V22.2715C2.25006 22.4546 2.30133 22.634 2.398 22.7893C2.49467 22.9446 2.63284 23.0696 2.7968 23.15C2.96076 23.2305 3.14393 23.2631 3.32546 23.2442C3.50699 23.2254 3.6796 23.1557 3.82365 23.0433L12 16.6632L20.1764 23.0433C20.3202 23.1561 20.4928 23.226 20.6744 23.2448C20.856 23.2637 21.0392 23.2308 21.203 23.1499C21.367 23.0696 21.5052 22.9446 21.6019 22.7893C21.6986 22.634 21.7499 22.4546 21.75 22.2715V3.68475C21.75 2.06672 20.4377 0.75 18.825 0.75ZM19.8 20.2719L12.5987 14.6519C12.4277 14.518 12.2171 14.4452 12.0002 14.445C11.7833 14.4449 11.5725 14.5173 11.4013 14.6509L4.2 20.2719V3.68475C4.2 3.14573 4.63778 2.7065 5.175 2.7065H18.825C19.3622 2.7065 19.8 3.14573 19.8 3.68475V20.2719Z" fill="black"/>
</svg>
